<?xml version="1.0" encoding="UTF-8"?>
<svg version="1.1" xmlns="http://www.w3.org/2000/svg" width="264" height="86">
<path d="M0 0 C1.51400391 0.01740234 1.51400391 0.01740234 3.05859375 0.03515625 C4.07050781 0.04417969 5.08242188 0.05320312 6.125 0.0625 C7.29869141 0.07990234 7.29869141 0.07990234 8.49609375 0.09765625 C9.64677153 2.3990118 9.61159453 3.66736416 9.59375 6.22436523 C9.59044678 7.07542343 9.58714355 7.92648163 9.58374023 8.80332947 C9.57544189 9.72416824 9.56714355 10.64500702 9.55859375 11.59375 C9.55480713 12.53823502 9.55102051 13.48272003 9.54711914 14.45582581 C9.53072509 18.5071432 9.50260934 22.55836095 9.47558594 26.60961914 C9.45754341 29.56265805 9.44542119 32.51568073 9.43359375 35.46875 C9.42529541 36.38756454 9.41699707 37.30637909 9.40844727 38.2530365 C9.40514404 39.10724686 9.40184082 39.96145721 9.3984375 40.84155273 C9.39320068 41.59274887 9.38796387 42.34394501 9.38256836 43.11790466 C9.42175325 45.31029769 9.42175325 45.31029769 10.49609375 48.09765625 C13.25250791 47.60009533 13.25250791 47.60009533 15.49609375 46.09765625 C15.61300692 44.69158929 15.66329269 43.27988431 15.68554688 41.86914062 C15.7022644 40.97151001 15.71898193 40.07387939 15.73620605 39.14904785 C15.74978149 38.17302612 15.76335693 37.19700439 15.77734375 36.19140625 C15.79575317 35.19637085 15.8141626 34.20133545 15.83312988 33.17614746 C15.89208601 29.98337913 15.9448195 26.79055666 15.99609375 23.59765625 C16.06350931 19.39961975 16.13717802 15.20176421 16.21484375 11.00390625 C16.22841919 10.02788452 16.24199463 9.05186279 16.25598145 8.04626465 C16.27269897 7.14863403 16.2894165 6.25100342 16.30664062 5.32617188 C16.32543274 4.13489685 16.32543274 4.13489685 16.34460449 2.91955566 C16.49609375 1.09765625 16.49609375 1.09765625 17.49609375 0.09765625 C19.34896877 0.02539123 21.20443253 0.01384405 23.05859375 0.03515625 C24.07050781 0.04417969 25.08242187 0.05320312 26.125 0.0625 C27.29869141 0.07990234 27.29869141 0.07990234 28.49609375 0.09765625 C28.47975786 6.78763453 28.4247685 13.47651336 28.34350586 20.16601562 C28.32037757 22.4393806 28.30594235 24.71285193 28.30053711 26.98632812 C28.29121011 30.2636911 28.25013493 33.53939296 28.203125 36.81640625 C28.20902397 38.32938293 28.20902397 38.32938293 28.21504211 39.8729248 C28.08324048 46.31698082 27.03121503 51.28540474 22.49609375 56.09765625 C19.25121234 58.03648063 16.23057885 58.58840828 12.49609375 59.09765625 C12.82609375 59.75765625 13.15609375 60.41765625 13.49609375 61.09765625 C7.99345754 61.38227536 4.17483651 61.40701089 -0.50390625 58.09765625 C-1.31640625 55.59765625 -1.31640625 55.59765625 -1.50390625 53.09765625 C-1.99890625 51.61265625 -1.99890625 51.61265625 -2.50390625 50.09765625 C-2.62345495 48.49282833 -2.69040677 46.88380293 -2.72509766 45.27490234 C-2.74827057 44.29733978 -2.77144348 43.31977722 -2.7953186 42.31259155 C-2.81516815 41.25939728 -2.8350177 40.206203 -2.85546875 39.12109375 C-2.87862152 38.04010406 -2.90177429 36.95911438 -2.92562866 35.84536743 C-2.97325134 33.56069587 -3.01848743 31.2759735 -3.06152344 28.99121094 C-3.12877278 25.47962558 -3.20647063 21.96837684 -3.28515625 18.45703125 C-3.33005663 16.24089808 -3.37434838 14.02475248 -3.41796875 11.80859375 C-3.44186676 10.75135101 -3.46576477 9.69410828 -3.49038696 8.60482788 C-3.50725555 7.63356964 -3.52412415 6.6623114 -3.54150391 5.66162109 C-3.55847321 4.80241058 -3.5754425 3.94320007 -3.59292603 3.05795288 C-3.45688019 0.0620996 -3.00474012 0.11718955 0 0 Z M0.49609375 56.09765625 C0.82609375 56.75765625 1.15609375 57.41765625 1.49609375 58.09765625 C2.15609375 57.76765625 2.81609375 57.43765625 3.49609375 57.09765625 C2.50609375 56.76765625 1.51609375 56.43765625 0.49609375 56.09765625 Z " fill="#DB202C" transform="translate(45.50390625,9.90234375)"/>
<path d="M0 0 C1.51400391 0.01740234 1.51400391 0.01740234 3.05859375 0.03515625 C4.07050781 0.04417969 5.08242187 0.05320312 6.125 0.0625 C7.29869141 0.07990234 7.29869141 0.07990234 8.49609375 0.09765625 C10.64904026 5.38596174 12.77543269 10.64889622 14.49609375 16.09765625 C14.87701172 15.11925781 14.87701172 15.11925781 15.265625 14.12109375 C17.15347903 9.32721723 19.09613113 4.65758523 21.49609375 0.09765625 C24.79609375 0.09765625 28.09609375 0.09765625 31.49609375 0.09765625 C31.16868506 4.53586291 30.26510226 7.84440276 28.33203125 11.86328125 C23.48047869 22.37851927 21.51361249 29.77448769 25.15478516 41.06347656 C26.82242704 45.5352094 28.58827855 49.94871474 30.54296875 54.30297852 C31.59583931 57.3901223 31.66832517 59.85844967 31.49609375 63.09765625 C27.86609375 62.76765625 24.23609375 62.43765625 20.49609375 62.09765625 C20.07457031 60.73769531 19.65304688 59.37773438 19.21875 57.9765625 C18.6655278 56.20437612 18.1121335 54.43224346 17.55859375 52.66015625 C17.28080078 51.76232422 17.00300781 50.86449219 16.71679688 49.93945312 C16.44931641 49.08544922 16.18183594 48.23144531 15.90625 47.3515625 C15.66011963 46.56080322 15.41398926 45.77004395 15.16040039 44.95532227 C14.64923324 43.10822317 14.64923324 43.10822317 13.49609375 42.09765625 C13.12097656 43.31324219 12.74585938 44.52882812 12.359375 45.78125 C11.84354854 47.36624403 11.32656094 48.95086051 10.80859375 50.53515625 C10.44217773 51.73881836 10.44217773 51.73881836 10.06835938 52.96679688 C8.13332037 58.7719139 8.13332037 58.7719139 5.2265625 60.2578125 C1.77482075 60.05534982 -1.23211281 59.18825406 -4.50390625 58.09765625 C-4.19050293 57.29658447 -3.87709961 56.4955127 -3.55419922 55.67016602 C-2.39091053 52.66337521 -1.24941405 49.64940154 -0.12158203 46.62915039 C0.36867079 45.32938413 0.86722155 44.03271379 1.37451172 42.73950195 C4.45397537 34.87077383 6.64202354 29.13351451 3.49609375 21.09765625 C3.21878418 20.25259521 2.94147461 19.40753418 2.65576172 18.53686523 C1.7721545 15.85172165 0.83083328 13.19394685 -0.12890625 10.53515625 C-0.45375 9.62185547 -0.77859375 8.70855469 -1.11328125 7.76757812 C-1.90544254 5.54253684 -2.70237215 3.3193345 -3.50390625 1.09765625 C-2.50390625 0.09765625 -2.50390625 0.09765625 0 0 Z " fill="#DB202C" transform="translate(222.50390625,9.90234375)"/>
<path d="M0 0 C1.39456452 0.00667256 2.78911118 0.01863093 4.18359375 0.03515625 C4.89451172 0.03966797 5.60542969 0.04417969 6.33789062 0.04882812 C8.09899388 0.06064761 9.86005411 0.07858362 11.62109375 0.09765625 C14.0061329 6.59369811 15.50523418 13.00661267 16.6640625 19.8203125 C16.83738602 20.80639999 17.01070953 21.79248749 17.18928528 22.80845642 C17.73549894 25.92460544 18.27219685 29.04230406 18.80859375 32.16015625 C19.17970805 34.28721948 19.55144683 36.41417384 19.92382812 38.54101562 C20.83013897 43.72533238 21.72792595 48.91105972 22.62109375 54.09765625 C18.66109375 54.09765625 14.70109375 54.09765625 10.62109375 54.09765625 C8.62109375 47.22265625 8.62109375 47.22265625 8.62109375 46.09765625 C5.32109375 45.76765625 2.02109375 45.43765625 -1.37890625 45.09765625 C-1.70890625 48.06765625 -2.03890625 51.03765625 -2.37890625 54.09765625 C-6.00890625 54.09765625 -9.63890625 54.09765625 -13.37890625 54.09765625 C-12.0671915 43.2490881 -10.29011234 32.52720264 -8.29223633 21.78564453 C-7.80819668 19.17843662 -7.33253045 16.56978613 -6.85742188 13.9609375 C-6.55127259 12.30069057 -6.24465054 10.64053073 -5.9375 8.98046875 C-5.79581894 8.20148224 -5.65413788 7.42249573 -5.50816345 6.61990356 C-4.2896436 0.12397814 -4.2896436 0.12397814 0 0 Z M3.62109375 16.09765625 C3.41613281 17.29003906 3.21117187 18.48242188 3 19.7109375 C2.72798568 21.27736478 2.4558436 22.84376989 2.18359375 24.41015625 C2.04888672 25.19583984 1.91417969 25.98152344 1.77539062 26.79101562 C1.64326172 27.54833984 1.51113281 28.30566406 1.375 29.0859375 C1.25455322 29.78243408 1.13410645 30.47893066 1.01000977 31.1965332 C0.62109375 33.09765625 0.62109375 33.09765625 -0.37890625 36.09765625 C2.26109375 36.09765625 4.90109375 36.09765625 7.62109375 36.09765625 C6.63109375 35.43765625 5.64109375 34.77765625 4.62109375 34.09765625 C4.70488281 33.46859375 4.78867188 32.83953125 4.875 32.19140625 C5.54426185 26.56621805 5.55237064 21.68531758 4.62109375 16.09765625 C4.29109375 16.09765625 3.96109375 16.09765625 3.62109375 16.09765625 Z M5.62109375 30.09765625 C6.62109375 34.09765625 6.62109375 34.09765625 6.62109375 34.09765625 Z " fill="#DB202C" transform="translate(121.37890625,9.90234375)"/>
<path d="M0 0 C0.74636719 -0.01482422 1.49273437 -0.02964844 2.26171875 -0.04492188 C6.38618997 0.01712769 8.07184217 0.34969268 11.40625 2.98046875 C14.46126736 6.93033261 15.7788907 9.34851169 15.6875 14.375 C15.68105469 15.16261719 15.67460938 15.95023438 15.66796875 16.76171875 C15.5 18.6875 15.5 18.6875 14.5 19.6875 C12.81391034 19.75955511 11.12499341 19.77136068 9.4375 19.75 C8.51839844 19.74097656 7.59929687 19.73195313 6.65234375 19.72265625 C5.94207031 19.71105469 5.23179688 19.69945313 4.5 19.6875 C4.17 16.7175 3.84 13.7475 3.5 10.6875 C1.84385343 10.30531233 0.17542976 9.97354898 -1.5 9.6875 C-2.89523855 10.85498999 -2.89523855 10.85498999 -2.61352539 14.10571289 C-2.61336628 15.62386988 -2.60767226 17.14203229 -2.59765625 18.66015625 C-2.59553383 19.85662025 -2.59553383 19.85662025 -2.59336853 21.07725525 C-2.58775316 23.63487435 -2.57519812 26.19240718 -2.5625 28.75 C-2.55748698 30.47981645 -2.55292373 32.20963426 -2.54882812 33.93945312 C-2.53777875 38.18883553 -2.52050386 42.43815312 -2.5 46.6875 C-0.52 46.0275 1.46 45.3675 3.5 44.6875 C3.83 41.0575 4.16 37.4275 4.5 33.6875 C6.129375 33.501875 7.75875 33.31625 9.4375 33.125 C10.81228516 32.96837891 10.81228516 32.96837891 12.21484375 32.80859375 C12.96894531 32.76863281 13.72304687 32.72867188 14.5 32.6875 C16.33758209 34.52508209 15.80114371 37.27581431 15.875 39.75 C15.83473014 45.85759587 14.89398344 50.28195345 10.5 54.6875 C7.11247817 56.96080383 4.08189974 56.98605989 0.0625 57 C-1.04996094 57.01675781 -2.16242188 57.03351563 -3.30859375 57.05078125 C-6.8317691 56.64973436 -8.66671299 55.77597977 -11.5 53.6875 C-17.08956092 46.50092167 -15.68304318 36.29807382 -15.6875 27.6875 C-15.69974609 26.44226563 -15.71199219 25.19703125 -15.72460938 23.9140625 C-15.73739055 15.92157017 -15.66683463 10.20052107 -11.40625 3.29296875 C-7.53521227 -0.17743738 -5.02674976 -0.18665824 0 0 Z " fill="#DB202C" transform="translate(91.5,9.3125)"/>
<path d="M0 0 C1.16781006 0.00523682 2.33562012 0.01047363 3.53881836 0.01586914 C4.79887695 0.0190918 6.05893555 0.02231445 7.35717773 0.02563477 C8.6976732 0.03399136 10.03816799 0.04245632 11.37866211 0.05102539 C12.72306153 0.05603879 14.06746271 0.06060197 15.41186523 0.06469727 C18.71334151 0.07653051 22.01473014 0.09301568 25.31616211 0.11352539 C28.12152874 8.52962527 24.76830719 14.44048299 21.19116211 22.11352539 C20.18013223 24.34052144 19.1710112 26.5683851 18.16381836 28.79711914 C17.67413574 29.87461426 17.18445313 30.95210937 16.67993164 32.06225586 C14.02606386 37.99996433 11.6545007 44.04568473 9.31616211 50.11352539 C10.45956055 50.02973633 11.60295898 49.94594727 12.78100586 49.85961914 C14.27187213 49.75647745 15.76275864 49.65362792 17.25366211 49.55102539 C18.38578125 49.46691406 18.38578125 49.46691406 19.54077148 49.38110352 C21.46362169 49.25176382 23.39005759 49.17835627 25.31616211 49.11352539 C26.31616211 50.11352539 26.31616211 50.11352539 26.44897461 52.14477539 C26.44639648 52.95946289 26.44381836 53.77415039 26.44116211 54.61352539 C26.4450293 55.83555664 26.4450293 55.83555664 26.44897461 57.08227539 C26.31616211 59.11352539 26.31616211 59.11352539 25.31616211 60.11352539 C23.68467144 60.41146929 22.04263765 60.65217516 20.39819336 60.86743164 C19.39079102 60.99956055 18.38338867 61.13168945 17.34545898 61.26782227 C16.28391602 61.4025293 15.22237305 61.53723633 14.12866211 61.67602539 C13.08645508 61.81459961 12.04424805 61.95317383 10.97045898 62.09594727 C6.05938943 62.72973437 1.28015797 63.31071348 -3.68383789 63.11352539 C-4.74004842 53.28135314 -1.65100153 45.49539429 2.00366211 36.61352539 C2.54113192 35.26392588 3.0769489 33.91366692 3.61108398 32.56274414 C6.63055166 24.97925492 9.87623841 17.51670069 13.31616211 10.11352539 C8.03616211 10.11352539 2.75616211 10.11352539 -2.68383789 10.11352539 C-3.56274414 3.17993164 -3.56274414 3.17993164 -3.68383789 1.11352539 C-2.68383789 0.11352539 -2.68383789 0.11352539 0 0 Z " fill="#DB202C" transform="translate(13.683837890625,9.886474609375)"/>
<path d="M0 0 C1.084021 0.00523682 2.16804199 0.01047363 3.28491211 0.01586914 C5.03964844 0.02070313 5.03964844 0.02070313 6.82983398 0.02563477 C8.67738281 0.03820313 8.67738281 0.03820313 10.56225586 0.05102539 C12.41560547 0.05779297 12.41560547 0.05779297 14.30639648 0.06469727 C17.37089703 0.07652931 20.43530307 0.09301366 23.49975586 0.11352539 C25.67433966 6.63727679 25.63340229 12.96160878 25.59741211 19.76196289 C25.59599716 20.77449127 25.59458221 21.78701965 25.59312439 22.83023071 C25.58754729 26.0496929 25.57499898 29.26908438 25.56225586 32.48852539 C25.5572379 34.67732647 25.55267551 36.86612864 25.54858398 39.05493164 C25.53758536 44.40782016 25.52087006 49.76066772 25.49975586 55.11352539 C25.16975586 55.11352539 24.83975586 55.11352539 24.49975586 55.11352539 C24.49975586 40.59352539 24.49975586 26.07352539 24.49975586 11.11352539 C19.21975586 11.11352539 13.93975586 11.11352539 8.49975586 11.11352539 C8.49975586 14.41352539 8.49975586 17.71352539 8.49975586 21.11352539 C12.78975586 21.11352539 17.07975586 21.11352539 21.49975586 21.11352539 C21.49975586 25.44685872 21.49975586 29.78019206 21.49975586 34.11352539 C17.20975586 34.11352539 12.91975586 34.11352539 8.49975586 34.11352539 C8.82975586 40.71352539 9.15975586 47.31352539 9.49975586 54.11352539 C5.20975586 54.11352539 0.91975586 54.11352539 -3.50024414 54.11352539 C-3.52488446 46.58382407 -3.54307555 39.054146 -3.55517578 31.52441406 C-3.56021784 28.96060782 -3.56705128 26.39680448 -3.57568359 23.83300781 C-3.58775478 20.15697518 -3.59347356 16.48098041 -3.59790039 12.80493164 C-3.60306168 11.65078262 -3.60822296 10.49663361 -3.61354065 9.30751038 C-3.61361618 8.24648605 -3.61369171 7.18546173 -3.61376953 6.09228516 C-3.61599014 5.15296646 -3.61821075 4.21364777 -3.62049866 3.24586487 C-3.44511679 0.13601337 -3.12843008 0.14204863 0 0 Z M8.49975586 9.11352539 C8.49975586 9.44352539 8.49975586 9.77352539 8.49975586 10.11352539 C13.77975586 10.11352539 19.05975586 10.11352539 24.49975586 10.11352539 C24.49975586 9.78352539 24.49975586 9.45352539 24.49975586 9.11352539 C19.21975586 9.11352539 13.93975586 9.11352539 8.49975586 9.11352539 Z " fill="#DB202C" transform="translate(148.500244140625,9.886474609375)"/>
<path d="M0 0 C1.37478516 0.01740234 1.37478516 0.01740234 2.77734375 0.03515625 C3.69644531 0.04417969 4.61554688 0.05320312 5.5625 0.0625 C6.27277344 0.07410156 6.98304688 0.08570313 7.71484375 0.09765625 C8.63346159 2.85350977 8.83688697 4.45726315 8.82836914 7.29370117 C8.82829361 8.13434616 8.82821808 8.97499115 8.82814026 9.84111023 C8.82297897 10.7443251 8.81781769 11.64753998 8.8125 12.578125 C8.81108505 13.50611404 8.8096701 14.43410309 8.80821228 15.39021301 C8.80261312 18.35522683 8.79006079 21.32016524 8.77734375 24.28515625 C8.77232864 26.29492078 8.76776575 28.3046865 8.76367188 30.31445312 C8.75264396 35.24221657 8.73537992 40.16992362 8.71484375 45.09765625 C13.66484375 45.75765625 18.61484375 46.41765625 23.71484375 47.09765625 C24.61179169 50.685448 24.79788492 53.44384462 24.71484375 57.09765625 C20.98540553 56.95830081 17.25637279 56.81003324 13.52734375 56.66015625 C12.47224609 56.62083984 11.41714844 56.58152344 10.33007812 56.54101562 C9.30849609 56.49912109 8.28691406 56.45722656 7.234375 56.4140625 C6.29698486 56.37740479 5.35959473 56.34074707 4.39379883 56.30297852 C1.76174665 56.10125101 -0.70436583 55.6366666 -3.28515625 55.09765625 C-3.3104223 47.42554423 -3.32798748 39.75344285 -3.34008789 32.08129883 C-3.34513002 29.46899006 -3.3519635 26.85668414 -3.3605957 24.24438477 C-3.37266661 20.49885357 -3.3783856 16.75335953 -3.3828125 13.0078125 C-3.38797379 11.8317897 -3.39313507 10.65576691 -3.39845276 9.44410706 C-3.39856606 7.82253944 -3.39856606 7.82253944 -3.39868164 6.16821289 C-3.40090225 5.2111293 -3.40312286 4.25404572 -3.40541077 3.26795959 C-3.23871914 0.25957868 -3.01518624 0.12885411 0 0 Z " fill="#DB202C" transform="translate(178.28515625,9.90234375)"/>
<path d="M0 0 C1.37478516 0.01740234 1.37478516 0.01740234 2.77734375 0.03515625 C3.69644531 0.04417969 4.61554688 0.05320312 5.5625 0.0625 C6.27277344 0.07410156 6.98304688 0.08570313 7.71484375 0.09765625 C8.74096973 3.17603419 8.83574594 5.26339921 8.82836914 8.48706055 C8.82829361 9.58797531 8.82821808 10.68889008 8.82814026 11.82316589 C8.82297897 13.0107399 8.81781769 14.1983139 8.8125 15.421875 C8.81108505 16.63841263 8.8096701 17.85495026 8.80821228 19.10835266 C8.80260687 23.00064535 8.79005342 26.89288089 8.77734375 30.78515625 C8.77232945 33.42122313 8.76776642 36.05729091 8.76367188 38.69335938 C8.75263568 45.16147789 8.73589225 51.62956299 8.71484375 58.09765625 C7.08993421 58.12463814 5.46489742 58.14404382 3.83984375 58.16015625 C2.48246094 58.17755859 2.48246094 58.17755859 1.09765625 58.1953125 C-1.28515625 58.09765625 -1.28515625 58.09765625 -3.28515625 57.09765625 C-3.30828541 49.81344077 -3.32607426 42.52923315 -3.33696842 35.24498844 C-3.342196 31.86293812 -3.34929136 28.48091285 -3.3605957 25.09887695 C-3.37349892 21.21435848 -3.37838549 17.32985028 -3.3828125 13.4453125 C-3.38797379 12.22554214 -3.39313507 11.00577179 -3.39845276 9.7490387 C-3.39852829 8.62795212 -3.39860382 7.50686554 -3.39868164 6.35180664 C-3.40090225 5.35919327 -3.40312286 4.3665799 -3.40541077 3.34388733 C-3.24160247 0.28411627 -3.06447253 0.13096036 0 0 Z " fill="#DB202C" transform="translate(207.28515625,9.90234375)"/>
<path d="M0 0 C0.33 0 0.66 0 1 0 C1 14.85 1 29.7 1 45 C1.99 44.505 1.99 44.505 3 44 C3.33 29.48 3.66 14.96 4 0 C4.33 0 4.66 0 5 0 C5 14.85 5 29.7 5 45 C3.68 45.66 2.36 46.32 1 47 C0 46 0 46 -0.12025452 44.13340759 C-0.11803391 43.31844315 -0.11581329 42.5034787 -0.11352539 41.66381836 C-0.11344986 40.7429393 -0.11337433 39.82206024 -0.11329651 38.87327576 C-0.10813522 37.87224319 -0.10297394 36.87121063 -0.09765625 35.83984375 C-0.0962413 34.82024063 -0.09482635 33.80063751 -0.09336853 32.75013733 C-0.08775097 29.47922893 -0.0751955 26.20838787 -0.0625 22.9375 C-0.05748726 20.72591244 -0.05292396 18.51432382 -0.04882812 16.30273438 C-0.03777584 10.86846643 -0.02102063 5.43423803 0 0 Z " fill="#DB202C" transform="translate(56,11)"/>
<path d="M0 0 C1.89440983 3.78881966 2.25150637 5.01506725 2.25878906 9.01220703 C2.26509338 10.00648712 2.27139771 11.00076721 2.27789307 12.025177 C2.2738446 13.09194672 2.26979614 14.15871643 2.265625 15.2578125 C2.26753845 16.35721161 2.2694519 17.45661072 2.27142334 18.58932495 C2.27278346 20.91095204 2.26909909 23.23258677 2.26074219 25.55419922 C2.25002005 29.11833647 2.26065406 32.68197198 2.2734375 36.24609375 C2.27211628 38.50000112 2.26955465 40.75390817 2.265625 43.0078125 C2.26967346 44.07863068 2.27372192 45.14944885 2.27789307 46.25271606 C2.27158875 47.24069183 2.26528442 48.2286676 2.25878906 49.24658203 C2.25719788 50.11832062 2.25560669 50.9900592 2.25396729 51.88821411 C2 54 2 54 0 56 C0 37.52 0 19.04 0 0 Z " fill="#DB202C" transform="translate(217,11)"/>
<path d="M0 0 C0.33 0 0.66 0 1 0 C1 15.18 1 30.36 1 46 C-2.63 45.67 -6.26 45.34 -10 45 C-10 44.67 -10 44.34 -10 44 C-6.7 44 -3.4 44 0 44 C0 29.48 0 14.96 0 0 Z " fill="#DB202C" transform="translate(202,11)"/>
<path d="M0 0 C0.33 0 0.66 0 1 0 C2.29670966 9.8631617 2.11124302 19.69797869 2.0625 29.625 C2.0574755 31.410155 2.05291428 33.19531136 2.04882812 34.98046875 C2.03789651 39.3203467 2.0206841 43.66015802 2 48 C1.34 47.67 0.68 47.34 0 47 C0 31.49 0 15.98 0 0 Z " fill="#DB202C" transform="translate(74,11)"/>
<path d="M0 0 C0.33 0 0.66 0 1 0 C1 15.18 1 30.36 1 46 C0.67 46 0.34 46 0 46 C-1.29305455 36.24208988 -0.9118833 26.61414476 -0.5625 16.8125 C-0.50914886 15.17645229 -0.4564099 13.54038449 -0.40429688 11.90429688 C-0.27658143 7.93593131 -0.1406072 3.96792883 0 0 Z " fill="#DB202C" transform="translate(143,11)"/>
<path d="M0 0 C0.33 0 0.66 0 1 0 C1 14.19 1 28.38 1 43 C1.99 43.33 2.98 43.66 4 44 C2.68 44 1.36 44 0 44 C0 29.48 0 14.96 0 0 Z " fill="#DB202C" transform="translate(188,11)"/>
<path d="M0 0 C8.25 0 16.5 0 25 0 C25.33 0.66 25.66 1.32 26 2 C17.28299826 2.14368684 8.68679101 1.71961582 0 1 C0 0.67 0 0.34 0 0 Z " fill="#DB202C" transform="translate(179,67)"/>
<path d="M0 0 C0.33 0 0.66 0 1 0 C1 8.58 1 17.16 1 26 C0.67 26 0.34 26 0 26 C0 17.42 0 8.84 0 0 Z " fill="#DB202C" transform="translate(40,29)"/>
<path d="M0 0 C0 0.33 0 0.66 0 1 C-10.395 2.485 -10.395 2.485 -21 4 C-21.33 3.34 -21.66 2.68 -22 2 C-7.40318907 -0.29612756 -7.40318907 -0.29612756 0 0 Z " fill="#DB202C" transform="translate(32,72)"/>
<path d="M0 0 C1.6852084 4.07679159 0.16939007 6.83075593 -1.4375 10.75 C-1.91058594 11.92046875 -2.38367188 13.0909375 -2.87109375 14.296875 C-3.24363281 15.18890625 -3.61617187 16.0809375 -4 17 C-5.3274855 13.01754349 -3.99907829 10.55210457 -2.5625 6.8125 C-2.19801758 5.83120117 -2.19801758 5.83120117 -1.82617188 4.83007812 C-1.2256707 3.21696714 -0.61390797 1.6080565 0 0 Z " fill="#DB202C" transform="translate(236,53)"/>
<path d="M0 0 C0.33 0 0.66 0 1 0 C1.41879658 1.4100489 1.80921039 2.82854812 2.1875 4.25 C2.51814453 5.43335938 2.51814453 5.43335938 2.85546875 6.640625 C3 9 3 9 1.55078125 11.296875 C1.03902344 11.85890625 0.52726562 12.4209375 0 13 C-0.19466332 11.20909747 -0.38051213 9.41723495 -0.5625 7.625 C-0.66691406 6.62726562 -0.77132812 5.62953125 -0.87890625 4.6015625 C-1 2 -1 2 0 0 Z " fill="#DB202C" transform="translate(41,56)"/>
<path d="M0 0 C1.98146451 0.44829514 3.96014211 0.90892498 5.9375 1.375 C7.03964844 1.63023438 8.14179688 1.88546875 9.27734375 2.1484375 C10.17582031 2.42945312 11.07429687 2.71046875 12 3 C12.33 3.66 12.66 4.32 13 5 C7.06 4.01 7.06 4.01 1 3 C0.67 2.01 0.34 1.02 0 0 Z " fill="#DB202C" transform="translate(241,71)"/>
<path d="M0 0 C0.66 0 1.32 0 2 0 C1.67 3.63 1.34 7.26 1 11 C0.67 11 0.34 11 0 11 C0 7.37 0 3.74 0 0 Z " fill="#DB202C" transform="translate(108,43)"/>
<path d="M0 0 C0.33 0.66 0.66 1.32 1 2 C3.97 2 6.94 2 10 2 C10 2.33 10 2.66 10 3 C6.37 3.33 2.74 3.66 -1 4 C-0.67 2.68 -0.34 1.36 0 0 Z " fill="#DB202C" transform="translate(25,56)"/>
<path d="M0 0 C4.29 0 8.58 0 13 0 C12.01 1.485 12.01 1.485 11 3 C11 2.34 11 1.68 11 1 C7.37 1 3.74 1 0 1 C0 0.67 0 0.34 0 0 Z " fill="#DB202C" transform="translate(13,21)"/>
<path d="M0 0 C0.66 0.66 1.32 1.32 2 2 C-2.29 2 -6.58 2 -11 2 C-11 1.67 -11 1.34 -11 1 C-9.20991533 0.77848451 -7.41781838 0.57317787 -5.625 0.375 C-4.62726563 0.25898437 -3.62953125 0.14296875 -2.6015625 0.0234375 C-1.74304688 0.01570313 -0.88453125 0.00796875 0 0 Z " fill="#DB202C" transform="translate(216,68)"/>
<path d="M0 0 C4.62 0 9.24 0 14 0 C14 0.33 14 0.66 14 1 C9.38 1 4.76 1 0 1 C0 0.67 0 0.34 0 0 Z " fill="#DB202C" transform="translate(84,67)"/>
<path d="M0 0 C4.29 0 8.58 0 13 0 C13 0.33 13 0.66 13 1 C8.71 1 4.42 1 0 1 C0 0.67 0 0.34 0 0 Z " fill="#DB202C" transform="translate(131,65)"/>
<path d="M0 0 C3.96 0.33 7.92 0.66 12 1 C12 1.33 12 1.66 12 2 C8.04 2 4.08 2 0 2 C0 1.34 0 0.68 0 0 Z " fill="#DB202C" transform="translate(107,64)"/>
<path d="M0 0 C3.96 0.33 7.92 0.66 12 1 C12 1.33 12 1.66 12 2 C8.04 2 4.08 2 0 2 C0 1.34 0 0.68 0 0 Z " fill="#DB202C" transform="translate(95,29)"/>
<path d="M0 0 C4.875 4.75 4.875 4.75 6 7 C3.00675737 5.9024777 2.15389099 5.32317108 0.75 2.375 C0.5025 1.59125 0.255 0.8075 0 0 Z " fill="#DB202C" transform="translate(76,59)"/>
<path d="M0 0 C0.93065133 2.60582371 1.14917407 3.64198224 0.0625 6.25 C-0.4634375 7.11625 -0.4634375 7.11625 -1 8 C-1.93065133 5.39417629 -2.14917407 4.35801776 -1.0625 1.75 C-0.711875 1.1725 -0.36125 0.595 0 0 Z " fill="#DB202C" transform="translate(107,56)"/>
<path d="M0 0 C2.64 0 5.28 0 8 0 C8 0.33 8 0.66 8 1 C5.69 1 3.38 1 1 1 C0.67 2.32 0.34 3.64 0 5 C0 3.35 0 1.7 0 0 Z " fill="#DB202C" transform="translate(121,56)"/>
<path d="M0 0 C-3.4352048 2.29013653 -4.985331 2.17842973 -9 2 C-9 1.67 -9 1.34 -9 1 C-2.25 -1.125 -2.25 -1.125 0 0 Z " fill="#DB202C" transform="translate(68,68)"/>
<path d="M0 0 C0.33 0 0.66 0 1 0 C0.67 2.97 0.34 5.94 0 9 C-0.33 9 -0.66 9 -1 9 C-0.67 6.03 -0.34 3.06 0 0 Z " fill="#DB202C" transform="translate(125,34)"/>
<path d="M0 0 C3.3 0 6.6 0 10 0 C10 0.33 10 0.66 10 1 C6.7 1 3.4 1 0 1 C0 0.67 0 0.34 0 0 Z " fill="#DB202C" transform="translate(145,65)"/>
<path d="M0 0 C0.33 0 0.66 0 1 0 C1 3.3 1 6.6 1 10 C0.67 10 0.34 10 0 10 C0 6.7 0 3.4 0 0 Z " fill="#DB202C" transform="translate(94,43)"/>
<path d="M0 0 C0.33 0 0.66 0 1 0 C1 3.3 1 6.6 1 10 C0.67 10 0.34 10 0 10 C0 6.7 0 3.4 0 0 Z " fill="#DB202C" transform="translate(108,18)"/>
<path d="M0 0 C0.33 0.99 0.66 1.98 1 3 C-0.4375 5.1875 -0.4375 5.1875 -2 7 C-1.125 2.25 -1.125 2.25 0 0 Z " fill="#DB202C" transform="translate(40,20)"/>
<path d="M0 0 C0.33 0.66 0.66 1.32 1 2 C-1.31 2 -3.62 2 -6 2 C-6 1.67 -6 1.34 -6 1 C-4.02 0.67 -2.04 0.34 0 0 Z " fill="#DB202C" transform="translate(230,70)"/>
<path d="M0 0 C2 3 2 3 1.625 5.1875 C1.315625 6.0846875 1.315625 6.0846875 1 7 C0.67 4.69 0.34 2.38 0 0 Z " fill="#DB202C" transform="translate(237,57)"/>
<path d="M0 0 C1 3 1 3 0.0625 5.1875 C-0.4634375 6.0846875 -0.4634375 6.0846875 -1 7 C-0.67 4.69 -0.34 2.38 0 0 Z " fill="#DB202C" transform="translate(247,35)"/>
<path d="M0 0 C0.33 0 0.66 0 1 0 C1 2.64 1 5.28 1 8 C0.67 8 0.34 8 0 8 C0 5.36 0 2.72 0 0 Z " fill="#DB202C" transform="translate(94,21)"/>
<path d="M0 0 C2.31 0 4.62 0 7 0 C7 0.33 7 0.66 7 1 C4.69 1 2.38 1 0 1 C0 0.67 0 0.34 0 0 Z " fill="#DB202C" transform="translate(32,71)"/>
<path d="M0 0 C0.33 0.66 0.66 1.32 1 2 C1.99 1.67 2.98 1.34 4 1 C4 1.66 4 2.32 4 3 C2.68 3 1.36 3 0 3 C0 2.01 0 1.02 0 0 Z " fill="#DB202C" transform="translate(90,52)"/>
<path d="M0 0 C0.33 0 0.66 0 1 0 C1 2.31 1 4.62 1 7 C0.67 7 0.34 7 0 7 C0 4.69 0 2.38 0 0 Z " fill="#DB202C" transform="translate(171,34)"/>
<path d="M0 0 C1.98 0.99 1.98 0.99 4 2 C3.67 2.66 3.34 3.32 3 4 C2.01 2.68 1.02 1.36 0 0 Z " fill="#DB202C" transform="translate(102,10)"/>
<path d="M0 0 C1.98 0 3.96 0 6 0 C6 0.33 6 0.66 6 1 C4.02 1 2.04 1 0 1 C0 0.67 0 0.34 0 0 Z " fill="#DB202C" transform="translate(218,70)"/>
<path d="M0 0 C2.475 0.495 2.475 0.495 5 1 C5 1.33 5 1.66 5 2 C3.35 2 1.7 2 0 2 C0 1.34 0 0.68 0 0 Z " fill="#DB202C" transform="translate(174,65)"/>
<path d="M0 0 C0.33 0.99 0.66 1.98 1 3 C0.34 3.66 -0.32 4.32 -1 5 C-0.67 3.35 -0.34 1.7 0 0 Z " fill="#DB202C" transform="translate(223,48)"/>
<path d="M0 0 C1.98 0 3.96 0 6 0 C6 0.33 6 0.66 6 1 C4.02 1 2.04 1 0 1 C0 0.67 0 0.34 0 0 Z " fill="#DB202C" transform="translate(100,40)"/>
<path d="M0 0 C0.33 0.99 0.66 1.98 1 3 C0.34 3.66 -0.32 4.32 -1 5 C-0.67 3.35 -0.34 1.7 0 0 Z " fill="#DB202C" transform="translate(33,36)"/>
<path d="M0 0 C0.33 0.99 0.66 1.98 1 3 C0.34 3.66 -0.32 4.32 -1 5 C-0.67 3.35 -0.34 1.7 0 0 Z " fill="#DB202C" transform="translate(18,36)"/>
<path d="M0 0 C0.33 0.99 0.66 1.98 1 3 C0.34 3.66 -0.32 4.32 -1 5 C-0.67 3.35 -0.34 1.7 0 0 Z " fill="#DB202C" transform="translate(20,31)"/>
<path d="M0 0 C0.33 0.99 0.66 1.98 1 3 C0.34 3.66 -0.32 4.32 -1 5 C-0.67 3.35 -0.34 1.7 0 0 Z " fill="#DB202C" transform="translate(36,29)"/>
<path d="M0 0 C0.33 0.99 0.66 1.98 1 3 C0.34 3.66 -0.32 4.32 -1 5 C-0.67 3.35 -0.34 1.7 0 0 Z " fill="#DB202C" transform="translate(23,24)"/>
<path d="M0 0 C0.66 0.66 1.32 1.32 2 2 C1.67 2.99 1.34 3.98 1 5 C0.67 3.35 0.34 1.7 0 0 Z " fill="#DB202C" transform="translate(236,20)"/>
<path d="M0 0 C0.66 0.66 1.32 1.32 2 2 C1.67 2.99 1.34 3.98 1 5 C0.67 3.35 0.34 1.7 0 0 Z " fill="#DB202C" transform="translate(220,18)"/>
<path d="M0 0 C0.33 0 0.66 0 1 0 C1 1.65 1 3.3 1 5 C0.67 5 0.34 5 0 5 C0 3.35 0 1.7 0 0 Z " fill="#DB202C" transform="translate(129,58)"/>
<path d="M0 0 C1.65 0 3.3 0 5 0 C5 0.33 5 0.66 5 1 C3.35 1 1.7 1 0 1 C0 0.67 0 0.34 0 0 Z " fill="#DB202C" transform="translate(35,57)"/>
<path d="M0 0 C0.33 0 0.66 0 1 0 C1 1.65 1 3.3 1 5 C0.67 5 0.34 5 0 5 C0 3.35 0 1.7 0 0 Z " fill="#DB202C" transform="translate(141,41)"/>
<path d="M0 0 C0.33 0 0.66 0 1 0 C1 1.65 1 3.3 1 5 C0.67 5 0.34 5 0 5 C0 3.35 0 1.7 0 0 Z " fill="#DB202C" transform="translate(110,38)"/>
<path d="M0 0 C0.33 0.66 0.66 1.32 1 2 C0.34 2.66 -0.32 3.32 -1 4 C-0.67 2.68 -0.34 1.36 0 0 Z " fill="#DB202C" transform="translate(227,38)"/>
<path d="M0 0 C0.33 0 0.66 0 1 0 C1 1.65 1 3.3 1 5 C0.67 5 0.34 5 0 5 C0 3.35 0 1.7 0 0 Z " fill="#DB202C" transform="translate(140,35)"/>
<path d="M0 0 C0.33 0 0.66 0 1 0 C1 1.65 1 3.3 1 5 C0.67 5 0.34 5 0 5 C0 3.35 0 1.7 0 0 Z " fill="#DB202C" transform="translate(139,30)"/>
<path d="M0 0 C0.33 0 0.66 0 1 0 C1 1.65 1 3.3 1 5 C0.67 5 0.34 5 0 5 C0 3.35 0 1.7 0 0 Z " fill="#DB202C" transform="translate(112,27)"/>
<path d="M0 0 C0.33 0 0.66 0 1 0 C1 1.65 1 3.3 1 5 C0.67 5 0.34 5 0 5 C0 3.35 0 1.7 0 0 Z " fill="#DB202C" transform="translate(138,24)"/>
<path d="M0 0 C0.33 0 0.66 0 1 0 C1 1.65 1 3.3 1 5 C0.67 5 0.34 5 0 5 C0 3.35 0 1.7 0 0 Z " fill="#DB202C" transform="translate(113,22)"/>
<path d="M0 0 C0.33 0 0.66 0 1 0 C1 1.65 1 3.3 1 5 C0.67 5 0.34 5 0 5 C0 3.35 0 1.7 0 0 Z " fill="#DB202C" transform="translate(137,19)"/>
<path d="M0 0 C0.66 0.33 1.32 0.66 2 1 C1.01 1.66 0.02 2.32 -1 3 C-0.67 2.01 -0.34 1.02 0 0 Z " fill="#DB202C" transform="translate(91,19)"/>
<path d="M0 0 C0.33 0 0.66 0 1 0 C1 1.65 1 3.3 1 5 C0.67 5 0.34 5 0 5 C0 3.35 0 1.7 0 0 Z " fill="#DB202C" transform="translate(114,16)"/>
<path d="M0 0 C0.33 0 0.66 0 1 0 C1 1.65 1 3.3 1 5 C0.67 5 0.34 5 0 5 C0 3.35 0 1.7 0 0 Z " fill="#DB202C" transform="translate(136,14)"/>
<path d="M0 0 C0.33 0 0.66 0 1 0 C1 1.65 1 3.3 1 5 C0.67 5 0.34 5 0 5 C0 3.35 0 1.7 0 0 Z " fill="#DB202C" transform="translate(115,11)"/>
<path d="M0 0 C1 4 1 4 1 4 Z " fill="#DB202C" transform="translate(240,67)"/>
<path d="M0 0 C0.33 0.66 0.66 1.32 1 2 C0.01 1.67 -0.98 1.34 -2 1 C-1.34 0.67 -0.68 0.34 0 0 Z " fill="#DB202C" transform="translate(158,64)"/>
<path d="M0 0 C1 4 1 4 1 4 Z " fill="#DB202C" transform="translate(253,60)"/>
<path d="M0 0 C0 3 0 3 0 3 Z " fill="#DB202C" transform="translate(72,61)"/>
<path d="M0 0 C1 4 1 4 1 4 Z " fill="#DB202C" transform="translate(111,33)"/>
<path d="M0 0 C0 3 0 3 0 3 Z " fill="#DB202C" transform="translate(78,12)"/>
<path d="M0 0 C0.66 0.33 1.32 0.66 2 1 C1.01 1 0.02 1 -1 1 C-0.67 0.67 -0.34 0.34 0 0 Z " fill="#DB202C" transform="translate(80,10)"/>
<path d="M0 0 C0.33 0.66 0.66 1.32 1 2 C0.34 1.67 -0.32 1.34 -1 1 C-0.67 0.67 -0.34 0.34 0 0 Z " fill="#DB202C" transform="translate(40,69)"/>
<path d="" fill="#DB202C" transform="translate(0,0)"/>
<path d="M0 0 C0.33 0.66 0.66 1.32 1 2 C0.34 1.67 -0.32 1.34 -1 1 C-0.67 0.67 -0.34 0.34 0 0 Z " fill="#DB202C" transform="translate(70,64)"/>
<path d="M0 0 C0.33 0.66 0.66 1.32 1 2 C0.34 1.67 -0.32 1.34 -1 1 C-0.67 0.67 -0.34 0.34 0 0 Z " fill="#DB202C" transform="translate(104,62)"/>
<path d="" fill="#DB202C" transform="translate(0,0)"/>
<path d="" fill="#DB202C" transform="translate(0,0)"/>
<path d="" fill="#DB202C" transform="translate(0,0)"/>
<path d="" fill="#DB202C" transform="translate(0,0)"/>
<path d="" fill="#DB202C" transform="translate(0,0)"/>
<path d="" fill="#DB202C" transform="translate(0,0)"/>
<path d="" fill="#DB202C" transform="translate(0,0)"/>
<path d="" fill="#DB202C" transform="translate(0,0)"/>
<path d="" fill="#DB202C" transform="translate(0,0)"/>
<path d="" fill="#DB202C" transform="translate(0,0)"/>
<path d="" fill="#DB202C" transform="translate(0,0)"/>
<path d="" fill="#DB202C" transform="translate(0,0)"/>
<path d="" fill="#DB202C" transform="translate(0,0)"/>
<path d="" fill="#DB202C" transform="translate(0,0)"/>
<path d="" fill="#DB202C" transform="translate(0,0)"/>
<path d="" fill="#DB202C" transform="translate(0,0)"/>
<path d="" fill="#DB202C" transform="translate(0,0)"/>
<path d="" fill="#DB202C" transform="translate(0,0)"/>
<path d="" fill="#DB202C" transform="translate(0,0)"/>
<path d="M0 0 C0.66 0 1.32 0 2 0 C1.67 0.66 1.34 1.32 1 2 C0.67 1.34 0.34 0.68 0 0 Z " fill="#DB202C" transform="translate(106,41)"/>
<path d="M0 0 C0.99 0.495 0.99 0.495 2 1 C1.01 1.495 1.01 1.495 0 2 C0 1.34 0 0.68 0 0 Z " fill="#DB202C" transform="translate(95,41)"/>
<path d="" fill="#DB202C" transform="translate(0,0)"/>
<path d="" fill="#DB202C" transform="translate(0,0)"/>
<path d="" fill="#DB202C" transform="translate(0,0)"/>
<path d="" fill="#DB202C" transform="translate(0,0)"/>
<path d="" fill="#DB202C" transform="translate(0,0)"/>
<path d="" fill="#DB202C" transform="translate(0,0)"/>
<path d="" fill="#DB202C" transform="translate(0,0)"/>
<path d="" fill="#DB202C" transform="translate(0,0)"/>
<path d="" fill="#DB202C" transform="translate(0,0)"/>
<path d="" fill="#DB202C" transform="translate(0,0)"/>
<path d="" fill="#DB202C" transform="translate(0,0)"/>
<path d="" fill="#DB202C" transform="translate(0,0)"/>
<path d="" fill="#DB202C" transform="translate(0,0)"/>
<path d="" fill="#DB202C" transform="translate(0,0)"/>
<path d="" fill="#DB202C" transform="translate(0,0)"/>
<path d="" fill="#DB202C" transform="translate(0,0)"/>
<path d="" fill="#DB202C" transform="translate(0,0)"/>
<path d="" fill="#DB202C" transform="translate(0,0)"/>
<path d="M0 0 C2 1 2 1 2 1 Z " fill="#DB202C" transform="translate(98,66)"/>
<path d="M0 0 C2 1 2 1 2 1 Z " fill="#DB202C" transform="translate(82,66)"/>
<path d="M0 0 C2 1 2 1 2 1 Z " fill="#DB202C" transform="translate(100,65)"/>
<path d="" fill="#DB202C" transform="translate(0,0)"/>
<path d="" fill="#DB202C" transform="translate(0,0)"/>
<path d="" fill="#DB202C" transform="translate(0,0)"/>
<path d="" fill="#DB202C" transform="translate(0,0)"/>
<path d="" fill="#DB202C" transform="translate(0,0)"/>
<path d="" fill="#DB202C" transform="translate(0,0)"/>
<path d="" fill="#DB202C" transform="translate(0,0)"/>
<path d="M0 0 C2 1 2 1 2 1 Z " fill="#DB202C" transform="translate(98,41)"/>
<path d="" fill="#DB202C" transform="translate(0,0)"/>
<path d="" fill="#DB202C" transform="translate(0,0)"/>
<path d="" fill="#DB202C" transform="translate(0,0)"/>
<path d="" fill="#DB202C" transform="translate(0,0)"/>
<path d="M0 0 C2 1 2 1 2 1 Z " fill="#DB202C" transform="translate(10,21)"/>
<path d="" fill="#DB202C" transform="translate(0,0)"/>
<path d="" fill="#DB202C" transform="translate(0,0)"/>
<path d="" fill="#DB202C" transform="translate(0,0)"/>
<path d="" fill="#DB202C" transform="translate(0,0)"/>
<path d="" fill="#DB202C" transform="translate(0,0)"/>
<path d="M0 0 C2 1 2 1 2 1 Z " fill="#DB202C" transform="translate(173,10)"/>
<path d="M0 0 C2 1 2 1 2 1 Z " fill="#DB202C" transform="translate(40,10)"/>
<path d="" fill="#DB202C" transform="translate(0,0)"/>
<path d="" fill="#DB202C" transform="translate(0,0)"/>
<path d="" fill="#DB202C" transform="translate(0,0)"/>
<path d="" fill="#DB202C" transform="translate(0,0)"/>
<path d="" fill="#DB202C" transform="translate(0,0)"/>
<path d="" fill="#DB202C" transform="translate(0,0)"/>
<path d="" fill="#DB202C" transform="translate(0,0)"/>
<path d="" fill="#DB202C" transform="translate(0,0)"/>
<path d="" fill="#DB202C" transform="translate(0,0)"/>
<path d="" fill="#DB202C" transform="translate(0,0)"/>
<path d="" fill="#DB202C" transform="translate(0,0)"/>
<path d="" fill="#DB202C" transform="translate(0,0)"/>
<path d="" fill="#DB202C" transform="translate(0,0)"/>
<path d="" fill="#DB202C" transform="translate(0,0)"/>
<path d="" fill="#DB202C" transform="translate(0,0)"/>
<path d="" fill="#DB202C" transform="translate(0,0)"/>
<path d="" fill="#DB202C" transform="translate(0,0)"/>
<path d="" fill="#DB202C" transform="translate(0,0)"/>
</svg>
